<svg xmlns="http://www.w3.org/2000/svg" width="133.98" height="51.831" viewBox="0 0 133.98 51.831">
  <g id="ABG_logo_SVG_-04" data-name="ABG logo (SVG)-04" transform="translate(-600.16 -400.78)">
    <path id="Path_2775" data-name="Path 2775" d="M621.865,405.611q4.231-2.36,8.666-4.831c.091.235.175.426.24.626q3.346,10.153,6.687,20.309,3.033,9.182,6.093,18.356c.583,1.735,1.249,3.444,1.931,5.144a6.1,6.1,0,0,0,3.04,3.444c1.534.724,2.718.171,2.98-1.51a28.412,28.412,0,0,0,.3-4.135c.067-8.18.127-16.358.13-24.538,0-3.288-.128-6.573-.227-9.861a7.553,7.553,0,0,0-.274-1.674,2.13,2.13,0,0,0-2.193-1.826c-1.1-.067-2.2-.056-3.3-.069-.875-.009-.9-.028-.9-.9,0-.4.006-.8,0-1.2-.006-.372.134-.525.538-.518,2.053.045,4.107.087,6.158.082,5.525-.011,11.051-.071,16.574-.06a41.576,41.576,0,0,1,4.639.3,12.943,12.943,0,0,1,6.672,2.459,8.734,8.734,0,0,1,3.219,4.814.914.914,0,0,1-.13.668,26.055,26.055,0,0,0-4.87,16.477,33.93,33.93,0,0,0,2,10.922,24.61,24.61,0,0,0,4.209,7.169c.117.14.233.281.365.439a9.2,9.2,0,0,1-4.723,4.278,21.5,21.5,0,0,1-7.96,1.545c-13.139.03-26.277.011-39.416.024-.493,0-.663-.171-.652-.627.009-.4.013-.8,0-1.2-.019-.465.182-.668.653-.663.75.007,1.5.011,2.253-.035,1.312-.082,1.867-.672,1.618-1.951-.307-1.566-.739-3.111-1.193-4.643-.94-3.161-1.934-6.307-2.895-9.463a.545.545,0,0,0-.618-.469q-7.612.02-15.226.006c-.268,0-.458.019-.562.341-1.333,4.137-2.69,8.266-4.019,12.4a7.467,7.467,0,0,0-.279,1.521,1.764,1.764,0,0,0,1.523,2.148,5.4,5.4,0,0,0,1.188.138c.918.02,1.836.013,2.755.009.424,0,.655.145.62.622a12.571,12.571,0,0,0,0,1.352c.013.384-.134.512-.531.508-3.172-.015-6.344-.009-9.517-.009-2.238,0-4.473-.009-6.711.009-.422,0-.562-.138-.542-.544.022-.449.011-.9,0-1.352-.011-.419.162-.611.6-.6.616.02,1.236,0,1.852,0a3.946,3.946,0,0,0,3.364-1.569,12.4,12.4,0,0,0,1.634-2.727q3.918-9.815,7.722-19.677c2.1-5.458,4.118-10.946,6.155-16.427a9.07,9.07,0,0,0,.449-1.789,6.249,6.249,0,0,0-.071-1.258Zm38.554,20.865c-.013.19-.032.32-.032.449,0,4.689-.017,9.377.007,14.067a15.386,15.386,0,0,0,.784,5.367,4.423,4.423,0,0,0,3.993,3.148,15.917,15.917,0,0,0,3.682-.114,8.532,8.532,0,0,0,7.407-6.521,16.664,16.664,0,0,0,.49-5.652,10.612,10.612,0,0,0-8.04-9.993,23.045,23.045,0,0,0-6.236-.748c-.679-.006-1.359,0-2.055,0Zm-.011-2.223a1.466,1.466,0,0,0,.218.054,27.873,27.873,0,0,0,6.335-.255,8.566,8.566,0,0,0,6.635-5.058,11.516,11.516,0,0,0,.519-8.067,7.09,7.09,0,0,0-3.491-4.442,14.877,14.877,0,0,0-8.783-1.772,1.333,1.333,0,0,0-1.253,1.376c-.041,1.419-.091,2.835-.1,4.254q-.061,6.733-.1,13.467c0,.147.013.3.019.445Zm-43.642,5.5h14.452c-.054-.2-.093-.361-.141-.518q-1.835-6.023-3.671-12.047c-.734-2.407-1.452-4.818-2.208-7.218a1.037,1.037,0,0,0-.566-.642c-.387-.095-.6.274-.756.6-.05.1-.089.216-.13.324q-3.058,8.486-6.114,16.973c-.3.825-.572,1.659-.869,2.524Z" transform="translate(0)" fill="#fff"/>
    <g id="Group_2714" data-name="Group 2714" transform="translate(600.16 400.78)">
      <path id="Path_2776" data-name="Path 2776" d="M621.865,405.611q4.231-2.36,8.666-4.831c.091.235.175.426.24.626q3.346,10.153,6.687,20.309,3.033,9.182,6.093,18.356c.583,1.735,1.249,3.444,1.931,5.144a6.1,6.1,0,0,0,3.04,3.444c1.534.724,2.718.171,2.98-1.51a28.412,28.412,0,0,0,.3-4.135c.067-8.18.127-16.358.13-24.538,0-3.288-.128-6.573-.227-9.861a7.553,7.553,0,0,0-.274-1.674,2.13,2.13,0,0,0-2.193-1.826c-1.1-.067-2.2-.056-3.3-.069-.875-.009-.9-.028-.9-.9,0-.4.006-.8,0-1.2-.006-.372.134-.525.538-.518,2.053.045,4.107.087,6.158.082,5.525-.011,11.051-.071,16.574-.06a41.576,41.576,0,0,1,4.639.3,12.943,12.943,0,0,1,6.672,2.459,8.734,8.734,0,0,1,3.219,4.814.914.914,0,0,1-.13.668,26.055,26.055,0,0,0-4.87,16.477,33.93,33.93,0,0,0,2,10.922,24.61,24.61,0,0,0,4.209,7.169c.117.14.233.281.365.439a9.2,9.2,0,0,1-4.723,4.278,21.5,21.5,0,0,1-7.96,1.545c-13.139.03-26.277.011-39.416.024-.493,0-.663-.171-.652-.627.009-.4.013-.8,0-1.2-.019-.465.182-.668.653-.663.75.007,1.5.011,2.253-.035,1.312-.082,1.867-.672,1.618-1.951-.307-1.566-.739-3.111-1.193-4.643-.94-3.161-1.934-6.307-2.895-9.463a.545.545,0,0,0-.618-.469q-7.612.02-15.226.006c-.268,0-.458.019-.562.341-1.333,4.137-2.69,8.266-4.019,12.4a7.467,7.467,0,0,0-.279,1.521,1.764,1.764,0,0,0,1.523,2.148,5.4,5.4,0,0,0,1.188.138c.918.02,1.836.013,2.755.009.424,0,.655.145.62.622a12.571,12.571,0,0,0,0,1.352c.013.384-.134.512-.531.508-3.172-.015-6.344-.009-9.517-.009-2.238,0-4.473-.009-6.711.009-.422,0-.562-.138-.542-.544.022-.449.011-.9,0-1.352-.011-.419.162-.611.6-.6.616.02,1.236,0,1.852,0a3.946,3.946,0,0,0,3.364-1.569,12.4,12.4,0,0,0,1.634-2.727q3.918-9.815,7.722-19.677c2.1-5.458,4.118-10.946,6.155-16.427a9.07,9.07,0,0,0,.449-1.789,6.249,6.249,0,0,0-.071-1.258Zm38.554,20.865c-.013.19-.032.32-.032.449,0,4.689-.017,9.377.007,14.067a15.386,15.386,0,0,0,.784,5.367,4.423,4.423,0,0,0,3.993,3.148,15.917,15.917,0,0,0,3.682-.114,8.532,8.532,0,0,0,7.407-6.521,16.664,16.664,0,0,0,.49-5.652,10.612,10.612,0,0,0-8.04-9.993,23.045,23.045,0,0,0-6.236-.748c-.679-.006-1.359,0-2.055,0Zm-.011-2.223a1.466,1.466,0,0,0,.218.054,27.873,27.873,0,0,0,6.335-.255,8.566,8.566,0,0,0,6.635-5.058,11.516,11.516,0,0,0,.519-8.067,7.09,7.09,0,0,0-3.491-4.442,14.877,14.877,0,0,0-8.783-1.772,1.333,1.333,0,0,0-1.253,1.376c-.041,1.419-.091,2.835-.1,4.254q-.061,6.733-.1,13.467c0,.147.013.3.019.445Zm-43.642,5.5h14.452c-.054-.2-.093-.361-.141-.518q-1.835-6.023-3.671-12.047c-.734-2.407-1.452-4.818-2.208-7.218a1.037,1.037,0,0,0-.566-.642c-.387-.095-.6.274-.756.6-.05.1-.089.216-.13.324q-3.058,8.486-6.114,16.973c-.3.825-.572,1.659-.869,2.524Z" transform="translate(-600.16 -400.78)" fill="#08006f"/>
      <path id="Path_2777" data-name="Path 2777" d="M1230.72,607.553h8.919q0-2.2,0-4.4c0-.732-.026-1.463-.043-2.308h-8.815c-.021,2.286-.039,4.511-.058,6.715Z" transform="translate(-1113.333 -563.596)" fill="#08006f"/>
      <path id="Path_2778" data-name="Path 2778" d="M1064.64,446.732c-.011.182-.021.365-.032.547a3.508,3.508,0,0,1-2.537,3.507c-.238.074-.462.19-.7.276a22.555,22.555,0,0,1-7.694,1.057,14.4,14.4,0,0,1-7.259-1.757,17.675,17.675,0,0,1-8-9.463,35.036,35.036,0,0,1-2.145-11,24.7,24.7,0,0,1,4.092-15.442c2.982-4.416,6.92-7.292,12.494-7.45a15.776,15.776,0,0,1,12.724,5.181,26.279,26.279,0,0,1,5.049,8.681c.491,1.311.331,1.188,1.707.966,1.125-.182,1.134-.192,1.076-1.365q-.335-6.8-.683-13.6c-.019-.374-.035-.752-.488-.886a.937.937,0,0,0-1.093.4q-.45.6-.9,1.2c-.605.8-.961.815-1.808.305a19.805,19.805,0,0,0-3.163-1.694,31.144,31.144,0,0,0-23.81.4,23.092,23.092,0,0,0-14.268,17.183,28.33,28.33,0,0,0,.471,13.1c2.1,8.171,7.044,13.847,15.1,16.651a33.732,33.732,0,0,0,12.065,1.709,41.149,41.149,0,0,0,18.328-4.749.648.648,0,0,0,.4-.663c-.013-1.033-.017-2.068-.019-3.1h-8.916Z" transform="translate(-947.247 -403.425)" fill="#08006f"/>
      <path id="Path_2779" data-name="Path 2779" d="M1219.544,590.4c.72,0,1.441-.011,2.161.009a3.357,3.357,0,0,1,.931.138c.922.294,1.288.955,1.2,2.148a9.289,9.289,0,0,1-.22,1.521q-.416,1.648-.836,3.291h3.137q.439-1.4.877-2.809a13.44,13.44,0,0,1,1.283-2.727,2.9,2.9,0,0,1,2.64-1.569c.484,0,.97-.015,1.454,0,.34.013.477-.177.467-.6-.009-.451-.017-.9,0-1.352.017-.406-.093-.547-.424-.544-1.756.019-3.509.009-5.265.009-2.489,0-4.976.007-7.465-.009-.311,0-.426.127-.417.508.011.451.022.9,0,1.352-.028.477.153.624.486.622Z" transform="translate(-1103.839 -553.081)" fill="#08006f"/>
    </g>
    <g id="Group_2715" data-name="Group 2715" transform="translate(715.375 426.845)">
      <path id="Path_2780" data-name="Path 2780" d="M1219.274,566.772h15.344a.554.554,0,0,0,.186-.518c-.011-.45-.021-.9,0-1.352.019-.406-.11-.547-.493-.544-2.035.018-4.07.009-6.1.009-2.885,0-5.771.007-8.655-.009-.361,0-.493.127-.482.508.013.451.026.9,0,1.352-.021.3.056.467.208.551Z" transform="translate(-1219.06 -559.972)" fill="#ff6b00"/>
      <path id="Path_2781" data-name="Path 2781" d="M1219.3,543.2h18.287a.518.518,0,0,0,.223-.518c-.013-.45-.024-.9,0-1.352.022-.406-.13-.547-.588-.544-2.424.019-4.85.009-7.275.009-3.438,0-6.877.007-10.315-.009-.43,0-.588.127-.575.508a12.113,12.113,0,0,1-.006,1.351c-.024.3.065.467.248.551Z" transform="translate(-1219.049 -540.79)" fill="#ff6b00"/>
    </g>
  </g>
</svg>
